<svg width="1451" height="129" viewBox="0 0 1451 129" fill="none" xmlns="http://www.w3.org/2000/svg">
<path d="M51.8515 128.77C42.6945 128.77 34.4246 127.168 27.0418 123.963C19.7162 120.701 13.6782 116.065 8.92805 110.056C4.23508 103.989 1.25905 96.7779 -3.85764e-05 88.4221L24.3805 84.8166C26.0974 91.9133 29.6458 97.3789 35.0255 101.213C40.4053 105.048 46.529 106.965 53.3968 106.965C57.2313 106.965 60.9513 106.364 64.5569 105.162C68.1625 103.96 71.1099 102.186 73.3991 99.8398C75.7456 97.4933 76.9189 94.6031 76.9189 91.1693C76.9189 89.9102 76.7186 88.7083 76.3179 87.5637C75.9745 86.3618 75.3736 85.2458 74.5152 84.2156C73.6567 83.1855 72.4262 82.2126 70.8237 81.2969C69.2785 80.3811 67.304 79.5513 64.9003 78.8073L32.7935 69.3641C30.3898 68.6773 27.5855 67.7044 24.3805 66.4453C21.2328 65.1862 18.1709 63.3834 15.1949 61.037C12.2188 58.6905 9.72929 55.6 7.72619 51.7655C5.78033 47.8738 4.80739 42.9805 4.80739 37.0856C4.80739 28.7871 6.89634 21.8907 11.0742 16.3965C15.2521 10.9023 20.8322 6.81028 27.8144 4.12041C34.7966 1.43053 42.5228 0.114212 50.9931 0.171446C59.5205 0.285907 67.1323 1.74531 73.8284 4.54964C80.5244 7.35398 86.1331 11.446 90.6544 16.8258C95.1757 22.1483 98.4378 28.6726 100.441 36.3989L75.2019 40.6912C74.2862 36.685 72.5979 33.3084 70.1369 30.5613C67.676 27.8142 64.7286 25.7252 61.2947 24.2945C57.9181 22.8637 54.3697 22.091 50.6497 21.9766C46.9869 21.8621 43.5244 22.3772 40.2622 23.5218C37.0572 24.6092 34.4246 26.2117 32.3643 28.3293C30.3612 30.4468 29.3596 32.965 29.3596 35.8838C29.3596 38.5737 30.1895 40.7771 31.8492 42.494C33.5089 44.1537 35.5978 45.4987 38.116 46.5288C40.6342 47.559 43.2096 48.4175 45.8423 49.1042L67.304 54.9418C70.509 55.8003 74.0573 56.9449 77.949 58.3757C81.8408 59.7493 85.5608 61.6951 89.1091 64.2133C92.7147 66.6742 95.6621 69.9364 97.9514 73.9999C100.298 78.0633 101.471 83.2141 101.471 89.4523C101.471 96.0911 100.069 101.9 97.2646 106.879C94.5175 111.801 90.7975 115.893 86.1045 119.155C81.4115 122.36 76.089 124.764 70.1369 126.367C64.2421 127.969 58.147 128.77 51.8515 128.77ZM161.718 128.77C154.85 128.77 148.326 127.74 142.145 125.68C135.964 123.619 130.813 120.357 126.693 115.893C123.373 112.173 120.941 108.167 119.396 103.875C117.908 99.5823 117.078 94.9465 116.906 89.9674C116.906 85.0455 117.622 80.3525 119.052 75.8885C120.483 71.3672 122.686 67.361 125.663 63.8699C126.635 62.7253 127.666 61.6951 128.753 60.7794C129.84 59.8065 130.928 58.8908 132.015 58.0323C128.925 54.484 126.607 50.9929 125.062 47.559C123.516 44.0679 122.744 40.0617 122.744 35.5404C122.744 28.0431 124.775 21.347 128.839 15.4522C132.96 9.55738 138.54 5.3795 145.579 2.91854C148.498 1.88838 151.445 1.20161 154.421 0.858223C157.397 0.514833 160.287 0.343138 163.092 0.343138C168.758 0.343138 174.166 1.23022 179.317 3.0044C184.468 4.72133 188.846 7.55428 192.451 11.5032C194.683 13.7925 196.515 16.3393 197.946 19.1436C199.434 21.948 200.521 24.7809 201.208 27.6425L178.029 32.2782C177.342 29.8745 176.141 27.8142 174.424 26.0972C172.821 24.4375 170.932 23.3787 168.758 22.9209C166.583 22.4058 164.465 22.1483 162.405 22.1483C159.143 22.1483 156.281 22.7206 153.82 23.8652C151.245 25.0671 149.328 26.6409 148.069 28.5868C146.867 30.5327 146.266 32.965 146.266 35.8838C146.266 38.5164 146.781 40.6054 147.811 42.1506C148.841 43.6959 150.043 45.2125 151.417 46.7005C152.39 47.7307 153.591 48.9325 155.022 50.3061C156.51 51.6796 158.055 53.1104 159.658 54.5984L187.987 80.8676C187.987 79.8947 187.987 78.7501 187.987 77.4337C187.987 76.1174 187.987 74.9156 187.987 73.8282V59.7493H208.247V83.2713C208.247 85.904 208.19 88.6797 208.076 91.5985C207.961 94.4601 207.675 96.8352 207.217 98.7238L222.326 112.631L207.389 128.599L196.057 117.782C192.795 120.586 189.304 122.818 185.584 124.478C181.921 126.138 178.201 127.282 174.424 127.912C172.02 128.255 169.816 128.484 167.813 128.599C165.81 128.713 163.779 128.77 161.718 128.77ZM162.748 106.622C164.065 106.622 165.324 106.564 166.526 106.45C167.728 106.336 168.929 106.164 170.131 105.935C171.963 105.592 173.622 105.105 175.11 104.476C176.656 103.789 178.029 103.016 179.231 102.158L149.013 74.3432C147.811 74.8583 146.724 75.4879 145.751 76.2319C144.835 76.9759 144.034 77.7771 143.347 78.6356C142.431 79.8947 141.716 81.3541 141.201 83.0138C140.686 84.6735 140.428 86.5335 140.428 88.5938C140.428 91.0548 140.8 93.201 141.544 95.0324C142.345 96.8065 143.29 98.4376 144.377 99.9256C146.266 102.329 149.013 104.046 152.618 105.076C156.224 106.107 159.601 106.622 162.748 106.622ZM282.733 128.77C273.576 128.77 265.306 127.168 257.923 123.963C250.598 120.701 244.56 116.065 239.809 110.056C235.117 103.989 232.14 96.7779 230.881 88.4221L255.262 84.8166C256.979 91.9133 260.527 97.3789 265.907 101.213C271.287 105.048 277.41 106.965 284.278 106.965C288.113 106.965 291.833 106.364 295.438 105.162C299.044 103.96 301.991 102.186 304.281 99.8398C306.627 97.4933 307.8 94.6031 307.8 91.1693C307.8 89.9102 307.6 88.7083 307.199 87.5637C306.856 86.3618 306.255 85.2458 305.397 84.2156C304.538 83.1855 303.308 82.2126 301.705 81.2969C300.16 80.3811 298.185 79.5513 295.782 78.8073L263.675 69.3641C261.271 68.6773 258.467 67.7044 255.262 66.4453C252.114 65.1862 249.052 63.3834 246.076 61.037C243.1 58.6905 240.611 55.6 238.608 51.7655C236.662 47.8738 235.689 42.9805 235.689 37.0856C235.689 28.7871 237.778 21.8907 241.956 16.3965C246.134 10.9023 251.714 6.81028 258.696 4.12041C265.678 1.43053 273.404 0.114212 281.875 0.171446C290.402 0.285907 298.014 1.74531 304.71 4.54964C311.406 7.35398 317.015 11.446 321.536 16.8258C326.057 22.1483 329.319 28.6726 331.322 36.3989L306.083 40.6912C305.168 36.685 303.479 33.3084 301.018 30.5613C298.557 27.8142 295.61 25.7252 292.176 24.2945C288.8 22.8637 285.251 22.091 281.531 21.9766C277.868 21.8621 274.406 22.3772 271.144 23.5218C267.939 24.6092 265.306 26.2117 263.246 28.3293C261.243 30.4468 260.241 32.965 260.241 35.8838C260.241 38.5737 261.071 40.7771 262.731 42.494C264.39 44.1537 266.479 45.4987 268.997 46.5288C271.516 47.559 274.091 48.4175 276.724 49.1042L298.185 54.9418C301.39 55.8003 304.939 56.9449 308.83 58.3757C312.722 59.7493 316.442 61.6951 319.991 64.2133C323.596 66.6742 326.544 69.9364 328.833 73.9999C331.179 78.0633 332.353 83.2141 332.353 89.4523C332.353 96.0911 330.95 101.9 328.146 106.879C325.399 111.801 321.679 115.893 316.986 119.155C312.293 122.36 306.97 124.764 301.018 126.367C295.124 127.969 289.028 128.77 282.733 128.77ZM377.009 126.195L414.782 2.57516H449.636L487.408 126.195H463.371L429.719 17.1691H434.183L401.046 126.195H377.009ZM399.673 100.441V78.6356H464.916V100.441H399.673ZM546.142 128.77C536.985 128.77 528.715 127.168 521.333 123.963C514.007 120.701 507.969 116.065 503.219 110.056C498.526 103.989 495.55 96.7779 494.291 88.4221L518.671 84.8166C520.388 91.9133 523.937 97.3789 529.316 101.213C534.696 105.048 540.82 106.965 547.688 106.965C551.522 106.965 555.242 106.364 558.848 105.162C562.453 103.96 565.401 102.186 567.69 99.8398C570.036 97.4933 571.21 94.6031 571.21 91.1693C571.21 89.9102 571.009 88.7083 570.609 87.5637C570.265 86.3618 569.664 85.2458 568.806 84.2156C567.948 83.1855 566.717 82.2126 565.115 81.2969C563.569 80.3811 561.595 79.5513 559.191 78.8073L527.084 69.3641C524.681 68.6773 521.876 67.7044 518.671 66.4453C515.524 65.1862 512.462 63.3834 509.486 61.037C506.51 58.6905 504.02 55.6 502.017 51.7655C500.071 47.8738 499.098 42.9805 499.098 37.0856C499.098 28.7871 501.187 21.8907 505.365 16.3965C509.543 10.9023 515.123 6.81028 522.105 4.12041C529.087 1.43053 536.814 0.114212 545.284 0.171446C553.811 0.285907 561.423 1.74531 568.119 4.54964C574.815 7.35398 580.424 11.446 584.945 16.8258C589.466 22.1483 592.729 28.6726 594.732 36.3989L569.493 40.6912C568.577 36.685 566.889 33.3084 564.428 30.5613C561.967 27.8142 559.019 25.7252 555.586 24.2945C552.209 22.8637 548.661 22.091 544.941 21.9766C541.278 21.8621 537.815 22.3772 534.553 23.5218C531.348 24.6092 528.715 26.2117 526.655 28.3293C524.652 30.4468 523.65 32.965 523.65 35.8838C523.65 38.5737 524.48 40.7771 526.14 42.494C527.8 44.1537 529.889 45.4987 532.407 46.5288C534.925 47.559 537.5 48.4175 540.133 49.1042L561.595 54.9418C564.8 55.8003 568.348 56.9449 572.24 58.3757C576.132 59.7493 579.852 61.6951 583.4 64.2133C587.006 66.6742 589.953 69.9364 592.242 73.9999C594.589 78.0633 595.762 83.2141 595.762 89.4523C595.762 96.0911 594.36 101.9 591.555 106.879C588.808 111.801 585.088 115.893 580.395 119.155C575.702 122.36 570.38 124.764 564.428 126.367C558.533 127.969 552.438 128.77 546.142 128.77ZM663.847 128.77C654.69 128.77 646.42 127.168 639.037 123.963C631.711 120.701 625.673 116.065 620.923 110.056C616.23 103.989 613.254 96.7779 611.995 88.4221L636.376 84.8166C638.093 91.9133 641.641 97.3789 647.021 101.213C652.4 105.048 658.524 106.965 665.392 106.965C669.226 106.965 672.946 106.364 676.552 105.162C680.158 103.96 683.105 102.186 685.394 99.8398C687.741 97.4933 688.914 94.6031 688.914 91.1693C688.914 89.9102 688.714 88.7083 688.313 87.5637C687.97 86.3618 687.369 85.2458 686.51 84.2156C685.652 83.1855 684.421 82.2126 682.819 81.2969C681.274 80.3811 679.299 79.5513 676.895 78.8073L644.789 69.3641C642.385 68.6773 639.581 67.7044 636.376 66.4453C633.228 65.1862 630.166 63.3834 627.19 61.037C624.214 58.6905 621.724 55.6 619.721 51.7655C617.775 47.8738 616.803 42.9805 616.803 37.0856C616.803 28.7871 618.891 21.8907 623.069 16.3965C627.247 10.9023 632.827 6.81028 639.81 4.12041C646.792 1.43053 654.518 0.114212 662.988 0.171446C671.516 0.285907 679.127 1.74531 685.823 4.54964C692.52 7.35398 698.128 11.446 702.649 16.8258C707.171 22.1483 710.433 28.6726 712.436 36.3989L687.197 40.6912C686.281 36.685 684.593 33.3084 682.132 30.5613C679.671 27.8142 676.724 25.7252 673.29 24.2945C669.913 22.8637 666.365 22.091 662.645 21.9766C658.982 21.8621 655.52 22.3772 652.257 23.5218C649.052 24.6092 646.42 26.2117 644.359 28.3293C642.356 30.4468 641.355 32.965 641.355 35.8838C641.355 38.5737 642.185 40.7771 643.844 42.494C645.504 44.1537 647.593 45.4987 650.111 46.5288C652.629 47.559 655.205 48.4175 657.837 49.1042L679.299 54.9418C682.504 55.8003 686.052 56.9449 689.944 58.3757C693.836 59.7493 697.556 61.6951 701.104 64.2133C704.71 66.6742 707.657 69.9364 709.946 73.9999C712.293 78.0633 713.466 83.2141 713.466 89.4523C713.466 96.0911 712.064 101.9 709.26 106.879C706.513 111.801 702.793 115.893 698.1 119.155C693.407 122.36 688.084 124.764 682.132 126.367C676.237 127.969 670.142 128.77 663.847 128.77ZM785.389 128.77C773.027 128.77 762.353 126.08 753.368 120.701C744.44 115.321 737.543 107.795 732.678 98.1229C727.871 88.4508 725.467 77.2048 725.467 64.385C725.467 51.5652 727.871 40.3192 732.678 30.6471C737.543 20.975 744.44 13.4491 753.368 8.06937C762.353 2.68963 773.027 -0.000245986 785.389 -0.000245986C797.751 -0.000245986 808.396 2.68963 817.324 8.06937C826.309 13.4491 833.205 20.975 838.013 30.6471C842.877 40.3192 845.31 51.5652 845.31 64.385C845.31 77.2048 842.877 88.4508 838.013 98.1229C833.205 107.795 826.309 115.321 817.324 120.701C808.396 126.08 797.751 128.77 785.389 128.77ZM785.389 106.793C793.229 106.908 799.754 105.22 804.962 101.728C810.17 98.2373 814.061 93.2868 816.637 86.8769C819.269 80.467 820.586 72.9697 820.586 64.385C820.586 55.8003 819.269 48.3602 816.637 42.0648C814.061 35.7693 810.17 30.8761 804.962 27.3849C799.754 23.8938 793.229 22.091 785.389 21.9766C777.548 21.8621 771.023 23.5504 765.815 27.0415C760.607 30.5327 756.687 35.4832 754.054 41.8931C751.479 48.303 750.191 55.8003 750.191 64.385C750.191 72.9697 751.479 80.4098 754.054 86.7052C756.687 93.0007 760.607 97.8939 765.815 101.385C771.023 104.876 777.548 106.679 785.389 106.793ZM915.5 128.77C903.138 128.77 892.465 126.08 883.479 120.701C874.551 115.321 867.655 107.795 862.79 98.1229C857.983 88.4508 855.579 77.2048 855.579 64.385C855.579 51.5652 857.983 40.3192 862.79 30.6471C867.655 20.975 874.551 13.4491 883.479 8.06937C892.465 2.68963 903.138 -0.000245986 915.5 -0.000245986C929.694 -0.000245986 941.598 3.51948 951.213 10.5589C960.885 17.5984 967.695 27.1274 971.644 39.146L948.122 45.6704C945.833 38.173 941.97 32.3641 936.533 28.2434C931.096 24.0655 924.085 21.9766 915.5 21.9766C907.66 21.9766 901.107 23.7221 895.841 27.2133C890.633 30.7044 886.713 35.6263 884.08 41.9789C881.448 48.3316 880.131 55.8003 880.131 64.385C880.131 72.9697 881.448 80.4384 884.08 86.7911C886.713 93.1437 890.633 98.0656 895.841 101.557C901.107 105.048 907.66 106.793 915.5 106.793C924.085 106.793 931.096 104.704 936.533 100.527C941.97 96.3487 945.833 90.5397 948.122 83.0996L971.644 89.624C967.695 101.643 960.885 111.172 951.213 118.211C941.598 125.251 929.694 128.77 915.5 128.77ZM992.264 126.195V2.57516H1015.61V126.195H992.264ZM1032.77 126.195L1070.54 2.57516H1105.39L1143.17 126.195H1119.13L1085.48 17.1691H1089.94L1056.8 126.195H1032.77ZM1055.43 100.441V78.6356H1120.67V100.441H1055.43ZM1177 126.195V24.3803H1138.02V2.57516H1239.32V24.3803H1200.35V126.195H1177ZM1253.12 126.195V2.57516H1333.81V24.3803H1276.47V50.8212H1323.51V72.6263H1276.47V104.39H1333.81V126.195H1253.12ZM1401.09 128.77C1391.93 128.77 1383.66 127.168 1376.28 123.963C1368.96 120.701 1362.92 116.065 1358.17 110.056C1353.47 103.989 1350.5 96.7779 1349.24 88.4221L1373.62 84.8166C1375.34 91.9133 1378.89 97.3789 1384.27 101.213C1389.64 105.048 1395.77 106.965 1402.64 106.965C1406.47 106.965 1410.19 106.364 1413.8 105.162C1417.4 103.96 1420.35 102.186 1422.64 99.8398C1424.99 97.4933 1426.16 94.6031 1426.16 91.1693C1426.16 89.9102 1425.96 88.7083 1425.56 87.5637C1425.21 86.3618 1424.61 85.2458 1423.75 84.2156C1422.9 83.1855 1421.67 82.2126 1420.06 81.2969C1418.52 80.3811 1416.54 79.5513 1414.14 78.8073L1382.03 69.3641C1379.63 68.6773 1376.83 67.7044 1373.62 66.4453C1370.47 65.1862 1367.41 63.3834 1364.43 61.037C1361.46 58.6905 1358.97 55.6 1356.97 51.7655C1355.02 47.8738 1354.05 42.9805 1354.05 37.0856C1354.05 28.7871 1356.14 21.8907 1360.31 16.3965C1364.49 10.9023 1370.07 6.81028 1377.05 4.12041C1384.04 1.43053 1391.76 0.114212 1400.23 0.171446C1408.76 0.285907 1416.37 1.74531 1423.07 4.54964C1429.76 7.35398 1435.37 11.446 1439.89 16.8258C1444.42 22.1483 1447.68 28.6726 1449.68 36.3989L1424.44 40.6912C1423.53 36.685 1421.84 33.3084 1419.38 30.5613C1416.92 27.8142 1413.97 25.7252 1410.53 24.2945C1407.16 22.8637 1403.61 22.091 1399.89 21.9766C1396.23 21.8621 1392.76 22.3772 1389.5 23.5218C1386.3 24.6092 1383.66 26.2117 1381.6 28.3293C1379.6 30.4468 1378.6 32.965 1378.6 35.8838C1378.6 38.5737 1379.43 40.7771 1381.09 42.494C1382.75 44.1537 1384.84 45.4987 1387.36 46.5288C1389.87 47.559 1392.45 48.4175 1395.08 49.1042L1416.54 54.9418C1419.75 55.8003 1423.3 56.9449 1427.19 58.3757C1431.08 59.7493 1434.8 61.6951 1438.35 64.2133C1441.95 66.6742 1444.9 69.9364 1447.19 73.9999C1449.54 78.0633 1450.71 83.2141 1450.71 89.4523C1450.71 96.0911 1449.31 101.9 1446.5 106.879C1443.76 111.801 1440.04 115.893 1435.34 119.155C1430.65 122.36 1425.33 124.764 1419.38 126.367C1413.48 127.969 1407.39 128.77 1401.09 128.77Z" fill="#C39C54"/>
</svg>
