<svg width="60" height="60" viewBox="0 0 60 60" fill="none" xmlns="http://www.w3.org/2000/svg">
<path d="M50.4297 16.875H45.7772L34.3622 28.285C34.7553 29.287 34.7915 30.3938 34.4646 31.4193C34.1377 32.4448 33.4676 33.3264 32.5671 33.916C31.6666 34.5055 30.5905 34.767 29.5198 34.6565C28.4492 34.546 27.4493 34.0701 26.6881 33.309C25.927 32.548 25.4513 31.548 25.3407 30.4774C25.2302 29.4067 25.4917 28.3306 26.0813 27.4301C26.6708 26.5296 27.5524 25.8595 28.5779 25.5326C29.6034 25.2057 30.7103 25.2419 31.7122 25.635L43.1247 14.2225V9.56996C43.1249 8.94746 43.3722 8.35037 43.8122 7.90999L48.1372 3.58499C48.2173 3.50443 48.3178 3.44721 48.4278 3.41946C48.5379 3.39171 48.6535 3.39449 48.7622 3.42749C48.9847 3.49249 49.1497 3.67749 49.1947 3.90499L50.3447 9.65746L56.0947 10.8075C56.3197 10.8525 56.5047 11.0175 56.5697 11.24C56.6025 11.348 56.6054 11.463 56.5782 11.5726C56.5508 11.6823 56.4943 11.7825 56.4147 11.8625L52.0872 16.1875C51.6474 16.6269 51.0514 16.8741 50.4297 16.875Z" fill="white"/>
<path d="M6.5625 30C6.5625 36.216 9.03183 42.1774 13.4272 46.5728C17.8226 50.9682 23.784 53.4375 30 53.4375C33.0778 53.4375 36.1256 52.8312 38.9692 51.6534C41.8127 50.4756 44.3964 48.7492 46.5728 46.5728C48.7492 44.3964 50.4756 41.8127 51.6534 38.9692C52.8312 36.1256 53.4375 33.0778 53.4375 30C53.4375 27.755 53.1225 25.585 52.535 23.5325C52.4182 23.0612 52.4888 22.5631 52.7319 22.1427C52.975 21.7225 53.3717 21.4128 53.8383 21.2791C54.3051 21.1453 54.8055 21.1978 55.2343 21.4255C55.6632 21.6532 55.9869 22.0384 56.1375 22.5C56.8225 24.885 57.1875 27.4 57.1875 30C57.1875 45.015 45.015 57.1875 30 57.1875C14.985 57.1875 2.8125 45.015 2.8125 30C2.8125 14.985 14.985 2.81251 30 2.81251C32.5375 2.81001 35.06 3.16251 37.5 3.86001C37.7379 3.92675 37.9602 4.03985 38.1543 4.19281C38.3484 4.34577 38.5103 4.53558 38.6307 4.75133C38.7512 4.96707 38.8277 5.2045 38.8562 5.44995C38.8846 5.6954 38.8642 5.94405 38.7961 6.18159C38.7281 6.41912 38.6137 6.64087 38.4597 6.83409C38.3057 7.0273 38.115 7.18816 37.8987 7.30743C37.6823 7.4267 37.4444 7.50202 37.1988 7.52906C36.9532 7.5561 36.7047 7.53434 36.4675 7.46501C34.3642 6.86466 32.1873 6.56089 30 6.56251C23.784 6.56251 17.8226 9.03183 13.4272 13.4272C9.03183 17.8226 6.5625 23.784 6.5625 30Z" fill="white"/>
<path d="M17.8124 30C17.8193 31.6558 18.1637 33.2928 18.8245 34.8111C19.4852 36.3293 20.4485 37.697 21.6555 38.8305C22.8625 39.9641 24.2878 40.8398 25.8445 41.4041C27.4012 41.9685 29.0566 42.2096 30.7096 42.1128C32.3626 42.016 33.9785 41.5833 35.4587 40.8411C36.9388 40.099 38.2522 39.063 39.3187 37.7962C40.3851 36.5295 41.1822 35.0588 41.6612 33.4738C42.1402 31.8888 42.2912 30.2228 42.1049 28.5775C42.0524 28.2442 42.091 27.9031 42.2167 27.59C42.3422 27.2769 42.5502 27.0036 42.8186 26.7992C43.0868 26.5947 43.4054 26.4665 43.7406 26.4285C44.0757 26.3903 44.415 26.4435 44.7224 26.5825C45.3499 26.8625 45.7724 27.46 45.8274 28.145C46.2156 31.433 45.5697 34.7605 43.9796 37.6645C42.3895 40.5687 39.9342 42.9053 36.9548 44.3496C33.9755 45.7939 30.6202 46.2741 27.3553 45.7236C24.0905 45.173 21.0782 43.619 18.7374 41.2775C16.3971 38.9386 14.8427 35.9293 14.2897 32.6671C13.7367 29.405 14.2125 26.0516 15.6512 23.0721C17.0898 20.0926 19.4201 17.6345 22.3186 16.0389C25.2172 14.4433 28.5403 13.7893 31.8274 14.1675C32.0758 14.1905 32.3172 14.263 32.5374 14.3805C32.7575 14.4981 32.952 14.6584 33.1093 14.8521C33.2667 15.0457 33.3838 15.2689 33.4538 15.5084C33.5238 15.748 33.5453 15.9991 33.5171 16.247C33.4887 16.495 33.4112 16.7347 33.2891 16.9523C33.1669 17.17 33.0026 17.361 32.8056 17.5142C32.6087 17.6675 32.3831 17.7799 32.1422 17.8448C31.9012 17.9098 31.6497 17.926 31.4024 17.8925C29.6949 17.6951 27.9651 17.861 26.3263 18.3793C24.6875 18.8976 23.1768 19.7566 21.8935 20.9C20.6102 22.0434 19.5831 23.4452 18.8797 25.0135C18.1764 26.5818 17.8127 28.2811 17.8124 30Z" fill="white"/>
</svg>
