<svg width="60" height="60" viewBox="0 0 60 60" fill="none" xmlns="http://www.w3.org/2000/svg">
<g clip-path="url(#clip0_41_26)">
<path d="M55.7147 7.38292C56.7041 6.66169 56.926 5.2747 56.2048 4.28532C55.4835 3.29593 54.0966 3.07402 53.1071 3.79525L46.2185 8.80692L45.303 8.19662C43.4815 6.97607 41.3363 6.32881 39.1448 6.32881H20.3558C17.887 6.32881 15.5013 7.15176 13.5688 8.64969L6.89277 3.79525C5.90339 3.07402 4.5164 3.29593 3.79517 4.28532C3.07393 5.2747 3.29585 6.66169 4.28523 7.38292L12.4222 13.3008C13.3099 13.9387 14.5212 13.8463 15.2979 13.0788L15.6585 12.7182C16.9068 11.4699 18.5989 10.7672 20.365 10.7672H24.6462L16.1671 19.2463C14.7246 20.6887 14.7246 23.0282 16.1671 24.4798L16.2411 24.5538C20.5685 28.8905 27.5959 28.8905 31.9325 24.5538L34.4383 22.048L43.4815 31.0912C44.924 32.5336 44.924 34.873 43.4815 36.3247L42.5753 37.2309L39.7089 34.3645C38.8397 33.4953 37.4342 33.4953 36.5742 34.3645C35.7144 35.2336 35.7051 36.6391 36.5742 37.499L39.1633 40.088C37.5452 41.0497 35.7236 41.6323 33.8373 41.7987L29.3527 37.3049C28.4835 36.4357 27.0781 36.4357 26.2181 37.3049C25.3582 38.174 25.3489 39.5795 26.2181 40.4394L27.6051 41.8264H27.2537C23.9157 41.8264 20.7164 40.5042 18.3585 38.1463L6.42119 26.209C5.55201 25.3398 4.14654 25.3398 3.2866 26.209C2.42667 27.0781 2.41743 28.4836 3.2866 29.3435L15.2239 41.2901C18.414 44.4802 22.7414 46.274 27.2537 46.274H32.0434L32.1359 46.3665L32.2284 46.274H32.7555C37.2678 46.274 41.5952 44.4802 44.7852 41.2901L46.6253 39.4501C46.7363 39.3391 46.838 39.2374 46.9397 39.1264C47.0044 39.0802 47.0599 39.0247 47.1153 38.9692L56.7226 29.3528C57.5918 28.4836 57.5918 27.0781 56.7226 26.2182C55.8534 25.3583 54.4479 25.349 53.5879 26.2182L48.6133 31.1928C48.2249 30.0093 47.5685 28.8905 46.6253 27.9473L36.0103 17.3323C35.1411 16.4631 33.7356 16.4631 32.8756 17.3323L28.7979 21.41C26.3475 23.8603 22.464 23.999 19.8564 21.8353L28.9829 12.709C30.2219 11.4699 31.9048 10.7672 33.6616 10.7579H39.1633C40.4763 10.7579 41.7616 11.1463 42.8527 11.8768L45.0441 13.3562C45.8208 13.874 46.8287 13.8463 47.5777 13.3008L55.7147 7.38292Z" fill="white"/>
</g>
<defs>
<clipPath id="clip0_41_26">
<rect width="60" height="60" fill="white"/>
</clipPath>
</defs>
</svg>
