<svg width="60" height="60" viewBox="0 0 60 60" fill="none" xmlns="http://www.w3.org/2000/svg">
<path d="M7.5 10C7.5 5.8625 8.3625 5 12.5 5H22.5C26.6375 5 27.5 5.8625 27.5 10C27.5 14.1375 26.6375 15 22.5 15H12.5C8.3625 15 7.5 14.1375 7.5 10ZM32.5 32.5C32.5 28.3625 33.3625 27.5 37.5 27.5H47.5C51.6375 27.5 52.5 28.3625 52.5 32.5C52.5 36.6375 51.6375 37.5 47.5 37.5H37.5C33.3625 37.5 32.5 36.6375 32.5 32.5ZM10 50C10 45.8625 10.8625 45 15 45H25C29.1375 45 30 45.8625 30 50C30 54.1375 29.1375 55 25 55H15C10.8625 55 10 54.1375 10 50Z" stroke="white" stroke-width="3"/>
<path d="M42.5 27.5C42.5 26.3375 42.5 25.7575 42.405 25.275C42.2122 24.3046 41.7359 23.4132 41.0364 22.7136C40.3368 22.0141 39.4454 21.5378 38.475 21.345C37.9925 21.25 37.4125 21.25 36.25 21.25H23.75C22.5875 21.25 22.0075 21.25 21.525 21.155C20.5546 20.9622 19.6632 20.4859 18.9636 19.7864C18.2641 19.0868 17.7878 18.1954 17.595 17.225C17.5 16.7425 17.5 16.1625 17.5 15M42.5 37.5V40C42.5 44.715 42.5 47.07 41.035 48.535C39.57 50 37.215 50 32.5 50H30" stroke="white" stroke-width="3" stroke-linecap="round" stroke-linejoin="round"/>
</svg>
