<svg width="14" height="14" viewBox="0 0 14 14" fill="none" xmlns="http://www.w3.org/2000/svg">
<g clip-path="url(#clip0_29_550)">
<path d="M8.7498 4C8.7498 3.80109 8.8289 3.61032 8.9695 3.46967C9.1102 3.32902 9.3009 3.25 9.4998 3.25H12.9998C13.1988 3.25 13.3895 3.32902 13.5302 3.46967C13.6708 3.61032 13.7498 3.80109 13.7498 4V7.5C13.7498 7.6989 13.6708 7.8897 13.5302 8.0303C13.3895 8.171 13.1988 8.25 12.9998 8.25C12.8009 8.25 12.6102 8.171 12.4695 8.0303C12.3289 7.8897 12.2498 7.6989 12.2498 7.5V5.81L7.5298 10.53C7.3892 10.6705 7.1986 10.7493 6.9998 10.7493C6.8011 10.7493 6.6105 10.6705 6.4698 10.53L3.99985 8.06L1.52985 10.53C1.38767 10.6625 1.19963 10.7346 1.00532 10.7312C0.811022 10.7277 0.625642 10.649 0.488222 10.5116C0.350812 10.3742 0.272102 10.1888 0.268672 9.9945C0.265242 9.8002 0.337372 9.6122 0.469852 9.47L3.46985 6.47C3.61047 6.3295 3.8011 6.2507 3.99985 6.2507C4.1986 6.2507 4.38922 6.3295 4.52985 6.47L6.9998 8.94L11.1898 4.75H9.4998C9.3009 4.75 9.1102 4.67098 8.9695 4.53033C8.8289 4.38968 8.7498 4.19891 8.7498 4Z" fill="#282828"/>
</g>
<defs>
<clipPath id="clip0_29_550">
<rect width="14" height="14" fill="white"/>
</clipPath>
</defs>
</svg>
